<?xml version="1.0" standalone="no"?>
<!DOCTYPE svg PUBLIC "-//W3C//DTD SVG 20010904//EN"
 "http://www.w3.org/TR/2001/REC-SVG-20010904/DTD/svg10.dtd">
<svg version="1.0" xmlns="http://www.w3.org/2000/svg"
 width="578.000000pt" height="536.000000pt" viewBox="0 0 578.000000 536.000000"
 preserveAspectRatio="xMidYMid meet">

<g transform="translate(0.000000,536.000000) scale(0.100000,-0.100000)"
fill="#000000" stroke="none">
<path d="M2608 4975 c-503 -61 -934 -229 -1319 -517 -622 -464 -957 -1197
-890 -1946 25 -282 83 -499 189 -711 312 -622 938 -1104 1656 -1276 238 -57
344 -69 601 -70 232 0 318 8 525 46 388 73 793 253 1120 500 277 208 476 452
640 784 130 262 198 504 222 796 49 599 -204 1246 -667 1704 -363 359 -844
597 -1375 680 -145 23 -545 29 -702 10z m482 -175 c577 -50 1173 -341 1537
-750 236 -266 421 -651 482 -1005 22 -129 31 -312 21 -446 -17 -220 -32 -259
-142 -365 -260 -252 -454 -345 -870 -413 -221 -37 -348 -48 -618 -56 -299 -9
-637 -43 -825 -85 -144 -31 -298 -94 -403 -164 -86 -57 -197 -172 -223 -230
-42 -95 -37 -205 12 -279 27 -41 82 -78 95 -64 3 3 -7 24 -22 47 -78 118 -19
276 147 386 142 94 316 153 614 210 150 28 465 46 465 27 0 -6 -54 -24 -119
-41 -219 -56 -361 -126 -474 -232 -305 -285 -22 -590 492 -531 141 17 273 52
364 96 76 37 157 98 146 109 -3 4 -61 -12 -128 -34 -164 -55 -249 -70 -402
-70 -262 0 -403 57 -440 178 -38 128 129 279 431 391 237 87 373 120 694 166
413 60 520 87 709 181 106 53 162 89 281 184 48 38 92 70 97 70 5 0 -2 -29
-16 -65 -59 -157 -188 -377 -305 -520 -79 -96 -278 -287 -376 -361 -456 -343
-1106 -534 -1649 -485 -367 33 -770 168 -1042 347 -106 71 -123 92 -123 159 0
171 233 388 548 510 242 93 652 160 1102 180 699 30 1201 131 1438 289 130 86
209 183 215 262 3 38 -18 41 -33 5 -18 -44 -147 -162 -229 -210 -99 -58 -427
-188 -440 -175 -3 3 12 21 34 40 22 18 35 34 30 34 -6 0 -60 -11 -120 -25
-200 -45 -368 -65 -661 -75 -524 -18 -747 -37 -1102 -90 -237 -36 -340 -60
-505 -116 -203 -70 -320 -130 -449 -232 -51 -40 -131 -126 -159 -171 -23 -38
-247 252 -349 452 -153 303 -236 703 -210 1011 61 719 488 1319 1213 1706 382
204 815 289 1267 250z m-1360 -3177 c0 -5 -17 -19 -37 -33 -64 -44 -187 -173
-218 -230 -28 -51 -30 -62 -28 -148 l2 -92 -57 42 c-156 114 -162 125 -116
194 78 117 241 232 373 263 47 12 81 13 81 4z"/>
<path d="M2406 4665 c-132 -36 -257 -130 -298 -222 -27 -61 -29 -146 -5 -192
9 -19 17 -36 17 -38 0 -1 -15 -3 -33 -3 -103 0 -236 -103 -271 -208 -61 -183
50 -406 231 -462 82 -25 105 -25 188 1 37 11 68 19 69 17 1 -2 7 -25 14 -52
25 -96 112 -186 217 -223 104 -36 258 -14 370 52 128 74 190 242 135 363 l-19
42 47 0 c31 0 68 10 107 28 191 91 242 322 111 501 -84 114 -222 159 -383 125
-28 -5 -33 -4 -33 12 0 31 -49 127 -83 163 -92 97 -241 134 -381 96z m234 -99
c79 -41 140 -124 140 -190 0 -27 -16 -58 -67 -133 -37 -54 -77 -123 -89 -153
-33 -80 -47 -72 -60 36 -18 144 -23 161 -51 184 -35 27 -71 26 -78 -2 -10 -39
25 -116 112 -254 11 -18 11 -23 0 -33 -11 -9 -29 0 -83 42 -37 28 -109 79
-159 112 -52 35 -97 73 -108 92 -37 65 -15 155 55 219 51 46 63 54 125 80 50
21 70 24 143 21 56 -2 97 -9 120 -21z m471 -261 c67 -34 136 -115 155 -183 48
-163 -57 -302 -227 -302 -33 0 -319 93 -370 121 -45 23 -13 34 119 39 112 4
135 8 159 26 36 27 42 73 14 98 -18 16 -26 17 -67 7 -25 -7 -90 -34 -145 -61
-104 -53 -119 -57 -119 -37 0 11 123 170 179 231 86 93 194 115 302 61z m-828
-215 c131 -53 210 -92 215 -107 2 -8 -35 -12 -131 -15 -116 -3 -138 -6 -156
-22 -25 -23 -27 -53 -4 -78 28 -31 91 -23 205 27 125 56 143 49 72 -27 -27
-29 -75 -87 -106 -129 -62 -82 -119 -121 -196 -134 -97 -16 -205 41 -256 135
-35 64 -47 181 -26 245 18 54 88 121 147 139 65 21 116 14 236 -34z m505 -263
c123 -77 156 -110 178 -184 53 -176 -178 -340 -390 -279 -116 34 -197 157
-166 251 12 37 124 262 140 282 6 7 17 10 25 7 12 -5 15 -26 15 -98 1 -162 19
-198 100 -193 40 2 45 5 48 28 4 36 -19 89 -80 182 -41 62 -49 80 -38 87 17
10 22 8 168 -83z"/>
<path d="M3183 4524 c-7 -3 -13 -14 -13 -24 0 -29 19 -37 166 -64 329 -60 591
-168 817 -338 104 -77 276 -237 338 -314 174 -214 293 -478 329 -734 12 -81
23 -102 54 -98 49 7 59 114 26 279 -25 124 -67 238 -132 359 -169 318 -416
553 -769 735 -170 87 -304 134 -479 169 -123 24 -313 41 -337 30z"/>
<path d="M1624 4137 c-142 -77 -318 -219 -431 -346 -231 -261 -364 -550 -408
-888 -36 -271 1 -539 100 -741 90 -181 275 -329 426 -340 34 -3 59 0 59 5 0 5
-30 25 -67 43 -102 50 -225 178 -285 295 -76 151 -103 249 -119 442 -28 350
67 687 280 988 86 122 304 336 451 441 87 63 125 96 125 109 0 34 -60 31 -131
-8z"/>
<path d="M3710 4031 c-115 -38 -190 -121 -190 -213 0 -24 7 -56 15 -72 19 -36
19 -36 -7 -36 -68 -1 -171 -88 -184 -155 -23 -126 57 -273 166 -306 59 -18
139 2 186 47 20 19 39 34 41 34 2 0 1 -15 -3 -34 -10 -54 20 -138 61 -174 126
-112 433 15 435 179 0 14 -11 47 -24 72 l-23 47 26 7 c70 16 140 71 160 126
16 43 13 117 -8 162 -41 91 -152 161 -241 153 -42 -4 -49 -2 -58 17 -19 42
-75 96 -126 122 -39 20 -69 27 -126 29 -41 2 -86 0 -100 -5z m200 -101 c81
-41 91 -99 33 -197 -21 -34 -41 -63 -45 -63 -5 0 -8 19 -8 43 0 101 -40 157
-111 157 -77 0 -83 -61 -17 -177 16 -29 26 -53 21 -53 -15 0 -126 75 -150 101
-36 39 -45 75 -29 113 38 91 198 131 306 76z m310 -165 c93 -48 124 -181 58
-252 -26 -27 -107 -47 -161 -39 -54 8 -167 47 -167 58 0 4 19 8 43 8 53 0 111
16 127 35 17 20 3 54 -25 61 -13 3 -58 -4 -100 -15 -43 -12 -79 -20 -82 -18
-6 7 73 120 105 151 49 46 126 50 202 11z"/>
<path d="M1479 3476 c-162 -66 -226 -175 -184 -311 5 -18 0 -22 -38 -32 -96
-26 -157 -117 -157 -233 0 -78 22 -132 75 -183 73 -71 158 -95 269 -75 15 2
22 -5 30 -32 16 -53 87 -117 154 -136 141 -41 313 37 377 173 17 34 17 90 0
141 -6 19 -4 22 16 22 40 0 125 46 152 82 78 101 42 274 -74 358 -54 39 -110
54 -177 47 -44 -5 -54 -3 -59 11 -27 87 -67 135 -138 168 -69 32 -168 32 -246
0z m236 -76 c43 -27 75 -74 75 -112 0 -14 -24 -72 -52 -129 l-53 -102 -12 62
c-16 80 -44 121 -83 121 -50 0 -50 -37 -1 -122 63 -108 61 -109 -70 -32 -113
67 -136 87 -149 132 -14 52 -1 91 44 137 76 75 218 97 301 45z m315 -192 c117
-60 148 -233 54 -305 -59 -44 -112 -43 -232 7 -57 24 -101 48 -99 54 2 6 35
16 74 23 83 13 109 25 118 53 17 53 -47 64 -150 25 -36 -13 -65 -21 -65 -18 0
18 99 149 125 164 42 27 119 25 175 -3z m-542 -170 c56 -22 102 -44 102 -48 0
-4 -38 -9 -84 -12 -91 -5 -136 -24 -136 -58 0 -45 65 -45 179 0 28 11 51 17
51 14 0 -3 -15 -24 -34 -47 -18 -23 -50 -68 -71 -99 -51 -78 -117 -98 -202
-63 -50 21 -72 42 -94 90 -52 112 -2 241 102 265 45 10 66 5 187 -42z m334
-181 c37 -21 79 -52 93 -68 63 -75 2 -189 -124 -234 -81 -28 -165 -13 -218 40
-45 45 -45 96 1 191 18 39 37 85 41 103 11 50 29 31 38 -40 11 -89 33 -123 80
-127 36 -3 37 -2 37 29 0 18 -15 60 -35 96 -42 77 -44 91 -7 67 15 -10 57 -35
94 -57z"/>
<path d="M2862 3017 c-43 -16 -99 -62 -123 -101 -26 -43 -25 -127 2 -183 23
-48 82 -99 137 -119 149 -53 322 60 322 210 0 108 -118 207 -245 205 -33 0
-75 -6 -93 -12z"/>
<path d="M4271 2982 c-19 -13 5 -25 89 -47 173 -43 227 -94 217 -205 -8 -94
-55 -163 -170 -249 -102 -77 -248 -138 -472 -196 -144 -37 -265 -54 -510 -70
-281 -19 -410 -38 -507 -76 -24 -10 -44 -36 -34 -46 7 -7 559 17 721 32 325
30 484 65 630 136 276 135 414 286 423 465 6 115 -33 171 -161 230 -62 28
-199 44 -226 26z"/>
<path d="M4000 2970 l-25 -8 27 -1 c77 -3 191 -74 204 -128 10 -38 -2 -101
-26 -136 -70 -102 -302 -199 -580 -244 -85 -13 -186 -17 -535 -18 -454 -1
-518 -6 -716 -56 -177 -44 -382 -129 -489 -202 -101 -70 -190 -170 -190 -214
0 -32 24 -29 50 7 50 71 316 216 487 265 183 54 292 66 673 75 417 11 535 17
690 36 312 39 527 134 678 298 110 121 92 251 -45 320 -34 17 -157 21 -203 6z"/>
<path d="M2415 2174 c-128 -34 -281 -112 -333 -168 -41 -44 -53 -78 -32 -91 6
-4 45 16 88 43 139 89 253 137 412 172 106 24 120 29 120 45 0 32 -133 32
-255 -1z"/>
<path d="M4280 1570 c-69 -16 -233 -45 -365 -65 -273 -41 -364 -60 -520 -112
-140 -46 -235 -93 -292 -146 -47 -43 -93 -124 -93 -165 0 -26 26 -82 38 -82 4
0 14 21 21 48 24 91 150 183 341 250 115 40 229 66 455 102 372 60 565 122
565 181 0 24 2 24 -150 -11z"/>
</g>
</svg>
